<svg id="visual" viewBox="0 0 1920 1080" width="1920" height="1080" xmlns="http://www.w3.org/2000/svg" xmlns:xlink="http://www.w3.org/1999/xlink" version="1.1"><rect x="0" y="0" width="1920" height="1080" fill="#FAFAFA"></rect><defs><linearGradient id="grad1_0" x1="43.8%" y1="0%" x2="100%" y2="100%"><stop offset="14.444444444444446%" stop-color="#fafafa" stop-opacity="1"></stop><stop offset="85.55555555555554%" stop-color="#fafafa" stop-opacity="1"></stop></linearGradient></defs><defs><linearGradient id="grad2_0" x1="0%" y1="0%" x2="56.3%" y2="100%"><stop offset="14.444444444444446%" stop-color="#fafafa" stop-opacity="1"></stop><stop offset="85.55555555555554%" stop-color="#fafafa" stop-opacity="1"></stop></linearGradient></defs><g transform="translate(1920, 0)"><path d="M0 594C-49 547.3 -98 500.7 -158.8 488.8C-219.7 477 -292.3 500 -349.1 480.6C-406 461.1 -447.1 399.2 -466 338.6C-484.9 277.9 -481.7 218.5 -499.3 162.2C-516.9 106 -555.5 53 -594 0L0 0Z" fill="#00BFA6"></path></g><g transform="translate(0, 1080)"><path d="M0 -594C59 -580.7 118.1 -567.5 179.5 -552.6C241 -537.6 304.8 -521 349.1 -480.6C393.5 -440.1 418.3 -375.7 440.1 -319.8C461.9 -263.8 480.8 -216.3 506 -164.4C531.1 -112.5 562.6 -56.3 594 0L0 0Z" fill="#00BFA6"></path></g></svg>